<svg width="535" height="353" viewBox="0 0 535 353" fill="none" xmlns="http://www.w3.org/2000/svg">
<g opacity="0.3">
<g style="mix-blend-mode:overlay">
<path d="M401.066 292.577H360.062L392.096 187.079H305.818L273.357 287.879C260.97 286.598 250.719 287.025 244.74 282.327C236.624 275.493 234.062 263.96 239.187 247.303L257.98 187.079H171.275L153.763 247.303C148.21 265.242 146.075 280.618 147.356 293.859C148.637 307.1 153.336 318.205 161.451 326.747C169.566 335.717 181.953 342.123 198.183 346.395C213.987 350.666 234.062 352.801 257.98 352.801H468.978L576.612 0H491.188L401.066 292.577Z" fill="#EAEAEA"/>
</g>
<g style="mix-blend-mode:overlay">
<path d="M343.832 72.1833C338.706 88.841 326.32 96.9563 307.527 96.9563H160.597L171.275 60.6511H347.676L343.832 72.1833ZM107.207 0L0 352.801H83.2885L142.658 157.607H324.184C335.289 157.607 345.967 156.326 356.218 153.336C366.469 150.346 375.866 146.502 384.408 140.95C392.951 135.397 400.212 128.99 406.619 121.302C412.598 113.614 417.297 104.644 420.286 94.3936L441.642 24.3459L449.331 0H107.207V0Z" fill="#ECECEC"/>
</g>
</g>
</svg>
