<svg width="357" height="353" viewBox="0 0 357 353" fill="none" xmlns="http://www.w3.org/2000/svg">
<g opacity="0.8">
<g style="mix-blend-mode:overlay" opacity="0.5">
<path d="M123.832 72.1833C118.706 88.841 106.32 96.9563 87.5266 96.9563H-59.4028L-48.7248 60.6511H127.676L123.832 72.1833ZM-112.793 0L-220 352.801H-136.712L-77.3418 157.607H104.184C115.289 157.607 125.967 156.326 136.218 153.336C146.469 150.346 155.866 146.502 164.408 140.95C172.951 135.397 180.212 128.99 186.619 121.302C192.598 113.614 197.297 104.644 200.286 94.3936L221.642 24.3459L229.331 0H-112.793V0Z" fill="#E1E1E1" fill-opacity="0.7"/>
</g>
<g style="mix-blend-mode:overlay" opacity="0.3">
<path d="M181.066 292.577H140.062L172.096 187.079H85.8181L53.357 287.879C40.9705 286.598 30.7196 287.025 24.7399 282.327C16.6246 275.493 14.0619 263.96 19.1873 247.303L37.9806 187.079H-48.7248L-66.2367 247.303C-71.7893 265.242 -73.9249 280.618 -72.6435 293.859C-71.3622 307.1 -66.6638 318.205 -58.5486 326.747C-50.4333 335.717 -38.0468 342.123 -21.8162 346.395C-6.01275 350.666 14.0619 352.801 37.9806 352.801H248.978L356.612 0H271.188L181.066 292.577Z" fill="#E1E1E1" fill-opacity="0.7"/>
</g>
</g>
</svg>
