<svg width="232" height="50" viewBox="0 0 232 50" fill="none" xmlns="http://www.w3.org/2000/svg">
<path fill-rule="evenodd" clip-rule="evenodd" d="M26.6191 16.3157L32.8217 33.5557H29.1081L27.9357 30.0072H21.2546L20.1327 33.5525H16.3999L22.5272 16.3125L26.6191 16.3157ZM22.1891 27.1063H26.9781L24.5892 19.7688L22.1891 27.1063ZM37.7486 16.3125H45.8577C49.4207 16.3125 51.2622 17.8696 51.2622 20.672C51.2622 22.4006 50.5963 23.5754 49.2075 24.2237C51.0018 24.9433 51.8713 26.2848 51.8713 28.3083C51.8713 31.5908 49.6667 33.5557 45.6037 33.5557H37.7534L37.7486 16.3125ZM45.1886 22.9752C46.8843 22.9752 47.6953 22.4254 47.6953 21.1007C47.6953 19.7769 46.8619 19.3089 45.1557 19.3089H41.1408V22.9752H45.1886ZM45.328 30.4392C47.2682 30.4392 48.1857 29.7821 48.1857 28.2066C48.1857 26.5237 47.2682 25.9226 45.308 25.9226H41.1472V30.4392H45.328ZM71.7422 33.5557L65.5404 16.3125H61.4357L55.3204 33.5557H59.0476L60.1735 30.0097H66.853L68.0294 33.5557H71.7422ZM65.901 27.1047H61.1127L63.5105 19.7656L65.901 27.1047Z" fill="#005D7B"/>
<path d="M77.0544 12.8H73.542V19.8249H77.0544V12.8Z" fill="#EC1E24"/>
<path fill-rule="evenodd" clip-rule="evenodd" d="M123.631 33.6493L128.921 16.3259H117.161C116.332 16.3259 115.527 16.4381 114.75 16.6633C113.972 16.8877 113.258 17.2163 112.61 17.649C111.962 18.0809 111.396 18.5994 110.911 19.2045C110.427 19.8095 110.073 20.4835 109.848 21.2272L106.062 33.6493H111.078L112.738 28.2023H120.226L118.566 33.6493H123.631ZM108.258 16.3259H90.6891L85.3984 33.6493H90.4407L92.1196 28.2023H98.8704C99.6998 28.2023 100.5 28.095 101.27 27.8778C102.038 27.663 102.743 27.3513 103.383 26.9442C104.022 26.5387 104.576 26.0418 105.043 25.4536C105.51 24.8654 105.855 24.1915 106.08 23.4309L108.258 16.3259ZM144.425 16.3259L142.336 23.1392H137.103C135.634 23.1392 135.097 22.5166 135.496 21.272L137.015 16.3259H131.973L130.08 22.5759C129.613 24.0977 129.738 25.2557 130.456 26.0506C131.173 26.8464 132.448 27.2439 134.281 27.2439H140.731C139.913 28.6752 138.086 29.5455 136.008 29.5455H127.939L126.682 33.6493H133.905C135.72 33.6493 137.323 33.489 138.716 33.1685C140.107 32.8487 141.317 32.3575 142.346 31.6915C143.375 31.0248 144.239 30.1954 144.939 29.2009C145.64 28.2072 146.197 27.0363 146.612 25.6876L149.465 16.3259H144.425ZM113.993 24.0728L114.614 22.2513C114.994 21.0068 115.911 20.3841 117.363 20.3841H122.763L121.533 24.0728H113.993ZM101.414 22.2056C101.016 23.4502 100.1 24.0728 98.6652 24.0728H93.3641L94.4901 20.3841H101.963L101.414 22.2056Z" fill="#005D7B"/>
<path fill-rule="evenodd" clip-rule="evenodd" d="M189.757 33.6493L195.047 16.3259H183.287C182.458 16.3259 181.653 16.4381 180.876 16.6633C180.097 16.8877 179.384 17.2163 178.736 17.649C178.088 18.0809 177.522 18.5994 177.037 19.2045C176.553 19.8095 176.199 20.4835 175.974 21.2272L172.188 33.6493H177.204L178.864 28.2023H186.351L184.692 33.6493H189.757ZM210.551 16.3259L208.461 23.1392H203.229C201.76 23.1392 201.223 22.5166 201.622 21.272L203.141 16.3259H198.099L196.206 22.5759C195.739 24.0977 195.864 25.2557 196.582 26.0506C197.299 26.8464 198.574 27.2439 200.407 27.2439H206.857C206.039 28.6752 204.212 29.5454 202.134 29.5454H194.065L192.808 33.6493H200.031C201.846 33.6493 203.449 33.489 204.842 33.1685C206.233 32.8487 207.443 32.3575 208.472 31.6915C209.501 31.0248 210.365 30.1954 211.065 29.2009C211.766 28.2072 212.323 27.0363 212.738 25.6876L215.591 16.3259H210.551ZM169.239 16.3259L165.205 29.5446H161.766L165.92 16.3259H160.95L156.821 29.4637C155.985 29.3515 155.352 29.1215 154.932 28.7665C154.318 28.248 154.202 27.3665 154.582 26.1212L157.579 16.3259H152.563L149.71 25.6868C149.295 27.0355 149.131 28.2072 149.217 29.2017C149.304 30.1954 149.662 31.0264 150.293 31.6907C150.924 32.3567 151.84 32.8487 153.042 33.1693C154.243 33.489 155.743 33.6493 157.541 33.6493H169.014L174.305 16.3259H169.239ZM180.119 24.0728L180.74 22.2513C181.12 21.0068 182.037 20.3841 183.489 20.3841H188.889L187.659 24.0728H180.119Z" fill="#3BC0CA"/>
</svg>
