<svg width="146" height="146" viewBox="0 0 146 146" fill="none" xmlns="http://www.w3.org/2000/svg">
<path opacity="0.4" fill-rule="evenodd" clip-rule="evenodd" d="M72.6083 1.53078e-06H73.3917C86.2887 -7.72689e-05 96.5079 -0.000139637 104.668 0.830005C113.029 1.68055 120.01 3.46061 126.115 7.54038C131.001 10.8047 135.195 14.9993 138.46 19.8847C142.539 25.9905 144.319 32.9706 145.17 41.3316C146 49.4921 146 59.7111 146 72.6081V73.3919C146 86.2889 146 96.5079 145.17 104.668C144.319 113.029 142.539 120.01 138.46 126.115C135.195 131.001 131.001 135.195 126.115 138.46C120.01 142.539 113.029 144.319 104.668 145.17C96.5079 146 86.2889 146 73.3919 146H72.6082C59.7111 146 49.4921 146 41.3316 145.17C32.9706 144.319 25.9905 142.539 19.8847 138.46C14.9993 135.195 10.8047 131.001 7.54038 126.115C3.46061 120.01 1.68055 113.029 0.830005 104.668C-0.000139694 96.5079 -7.72689e-05 86.2889 1.53078e-06 73.3919V72.6083C-7.72689e-05 59.7113 -0.000139637 49.4921 0.830005 41.3316C1.68055 32.9706 3.46061 25.9905 7.54038 19.8847C10.8047 14.9993 14.9993 10.8047 19.8847 7.54038C25.9905 3.46061 32.9706 1.68055 41.3316 0.830005C49.4921 -0.000139694 59.7113 -7.72689e-05 72.6083 1.53078e-06Z" fill="white"/>
<path d="M46.6885 57.8539L46.6885 88.1463C46.6885 91.1323 49.1058 93.5557 52.0843 93.5557L93.0926 93.5557C96.0711 93.5557 98.4885 91.1323 98.4885 88.1463L98.4885 57.8539C98.4885 54.8679 96.0711 52.4446 93.0926 52.4446L52.0843 52.4446C49.1058 52.4446 46.6885 54.8679 46.6885 57.8539ZM96.3301 73.0001C96.3301 74.796 94.8841 76.2457 93.0926 76.2457C91.3012 76.2457 89.8551 74.796 89.8551 73.0001C89.8551 71.2042 91.3012 69.7545 93.0926 69.7545C94.8841 69.7545 96.3301 71.2042 96.3301 73.0001ZM87.6968 56.772L87.6968 89.2282L53.1635 89.2282L53.1635 56.772L87.6968 56.772Z" fill="#0BBCD4"/>
<path d="M48.8547 105.683C43.2276 103.045 39.2008 97.5981 38.5813 91.1574H36C36.8776 101.709 45.74 110 56.5642 110L57.6999 109.949L51.1435 103.422L48.8547 105.683ZM89.453 36L88.3173 36.0514L94.8737 42.5778L97.1625 40.2995C102.79 42.9546 106.816 48.3847 107.419 54.8255H110C109.14 44.2907 100.277 36 89.453 36Z" fill="#055B83"/>
</svg>
